<?xml version="1.0" encoding="UTF-8"?>
<svg xmlns="http://www.w3.org/2000/svg" xmlns:xlink="http://www.w3.org/1999/xlink" viewBox="0 0 60 60" width="60px" height="60px">
<g id="surface26898419">
<path style=" stroke:none;fill-rule:nonzero;fill:rgb(100%,100%,100%);fill-opacity:1;" d="M 56.25 43.75 C 56.25 46.511719 54.011719 48.75 51.25 48.75 L 8.75 48.75 C 5.988281 48.75 3.75 46.511719 3.75 43.75 L 3.75 16.25 C 3.75 13.488281 5.988281 11.25 8.75 11.25 L 51.25 11.25 C 54.011719 11.25 56.25 13.488281 56.25 16.25 Z M 56.25 43.75 "/>
<path style=" stroke:none;fill-rule:nonzero;fill:rgb(3.921569%,38.82353%,61.960787%);fill-opacity:1;" d="M 18.984375 23.75 L 15.699219 33.539062 C 15.699219 33.539062 14.867188 29.398438 14.785156 28.878906 C 12.914062 24.613281 10.15625 24.851562 10.15625 24.851562 L 13.40625 37.5 L 13.40625 37.496094 L 17.359375 37.496094 L 22.824219 23.75 Z M 22.109375 37.5 L 25.699219 37.5 L 27.871094 23.75 L 24.234375 23.75 Z M 47.511719 23.75 L 43.734375 23.75 L 37.847656 37.5 L 41.410156 37.5 L 42.144531 35.535156 L 46.640625 35.535156 L 47.023438 37.5 L 50.289062 37.5 Z M 43.140625 32.910156 L 45.09375 27.714844 L 46.117188 32.910156 Z M 32.960938 27.757812 C 32.960938 27 33.582031 26.4375 35.367188 26.4375 C 36.527344 26.4375 37.859375 27.277344 37.859375 27.277344 L 38.441406 24.390625 C 38.441406 24.390625 36.742188 23.75 35.078125 23.75 C 31.300781 23.75 29.355469 25.554688 29.355469 27.839844 C 29.355469 31.972656 34.328125 31.40625 34.328125 33.527344 C 34.328125 33.890625 34.042969 34.734375 31.96875 34.734375 C 29.890625 34.734375 28.519531 33.972656 28.519531 33.972656 L 27.902344 36.742188 C 27.902344 36.742188 29.230469 37.5 31.796875 37.5 C 34.371094 37.5 37.941406 35.574219 37.941406 32.808594 C 37.941406 29.484375 32.960938 29.242188 32.960938 27.757812 Z M 32.960938 27.757812 "/>
<path style=" stroke:none;fill-rule:nonzero;fill:rgb(100%,75.686276%,2.745098%);fill-opacity:1;" d="M 15.265625 31.179688 L 14.058594 25.246094 C 14.058594 25.246094 13.511719 23.960938 12.089844 23.960938 C 10.671875 23.960938 6.542969 23.960938 6.542969 23.960938 C 6.542969 23.960938 13.617188 26.050781 15.265625 31.179688 Z M 15.265625 31.179688 "/>
</g>
</svg>
